<?xml version="1.0" ?><!DOCTYPE svg  PUBLIC '-//W3C//DTD SVG 1.1//EN'  'http://www.w3.org/Graphics/SVG/1.1/DTD/svg11.dtd'><svg enable-background="new 0 0 100 100" height="100px" id="Layer_1" version="1.1" viewBox="0 0 100 100" width="100px" xml:space="preserve" xmlns="http://www.w3.org/2000/svg" xmlns:xlink="http://www.w3.org/1999/xlink"><path d="M33.9,62.864c-2.187,0-3.966-1.779-3.966-3.966c0-2.188,1.779-3.967,3.966-3.967s3.966,1.779,3.966,3.967  C37.868,61.085,36.087,62.864,33.9,62.864z M33.9,56.932c-1.084,0-1.966,0.883-1.966,1.967s0.882,1.966,1.966,1.966  s1.966-0.882,1.966-1.966C35.868,57.814,34.985,56.932,33.9,56.932z"/><path d="M33.9,74.729c-2.187,0-3.966-1.778-3.966-3.965c0-2.188,1.779-3.967,3.966-3.967s3.966,1.779,3.966,3.967  C37.867,72.95,36.087,74.729,33.9,74.729z M33.9,68.796c-1.084,0-1.966,0.882-1.966,1.966s0.882,1.967,1.966,1.967  s1.966-0.883,1.966-1.967S34.985,68.796,33.9,68.796z"/><path d="M51.698,58.119H41.02c-0.552,0-1-0.448-1-1c0-0.553,0.448-1,1-1h10.678c0.552,0,1,0.447,1,1  C52.698,57.671,52.25,58.119,51.698,58.119z"/><path d="M44.58,61.678h-3.56c-0.552,0-1-0.447-1-1c0-0.552,0.448-1,1-1h3.56c0.552,0,1,0.448,1,1  C45.58,61.23,45.131,61.678,44.58,61.678z"/><path d="M44.58,69.982h-3.56c-0.552,0-1-0.447-1-1c0-0.551,0.448-1,1-1h3.56c0.552,0,1,0.449,1,1  C45.58,69.535,45.131,69.982,44.58,69.982z"/><path d="M52.884,73.542H41.02c-0.552,0-1-0.448-1-1s0.448-1,1-1h11.865c0.552,0,1,0.448,1,1S53.437,73.542,52.884,73.542z"/><path d="M69.686,80.66c-0.401,0-0.78-0.244-0.933-0.641c-1.338-3.473-1.924-4.73-2.168-5.185c-1.018-0.144-2.158-0.494-2.788-0.789  l-14.683-5.709c-1.833-0.771-2.482-1.921-2.709-2.75c-0.132-0.708-0.009-1.446,0.178-1.884c0.18-0.508,0.572-1.152,1.018-1.494  c1.169-1.07,3.329-1.574,4.959-1.15l4.822,1.159l-7.599-20.875c-0.326-0.891-0.277-1.869,0.137-2.753  c0.356-0.77,1.132-1.645,2.07-1.892c0.875-0.304,1.831-0.248,2.697,0.157c0.875,0.401,1.542,1.12,1.871,2.021l3.003,8.254  c0.451-0.668,1.139-1.3,1.895-1.5c0.835-0.289,1.734-0.268,2.604,0.061c0.574,0.265,1.039,0.627,1.394,1.077  c0.343-0.691,1.097-1.511,2.002-1.747c0.875-0.301,1.828-0.248,2.692,0.154c0.643,0.245,1.28,0.831,1.645,1.482  c0.484-0.774,1.248-1.344,1.843-1.561c0.956-0.349,2.008-0.286,2.816,0.167c0.696,0.327,1.594,1.166,1.824,2.042l5.067,13.923  c0.189,0.519-0.079,1.092-0.597,1.281c-0.52,0.19-1.093-0.078-1.282-0.597l-5.087-13.977c-0.016-0.043-0.028-0.087-0.038-0.133  c-0.048-0.152-0.415-0.58-0.804-0.764c-0.359-0.199-0.812-0.211-1.214-0.064c-0.241,0.088-0.719,0.466-0.891,0.836  c-0.126,0.339-0.159,0.783-0.146,1.006l0.731,2.005c0.253,0.699-0.079,1.464-0.741,1.708c-0.349,0.128-0.719,0.116-1.042-0.036  c-0.323-0.151-0.57-0.428-0.695-0.775l-1.395-3.836c-0.014-0.038-0.025-0.077-0.035-0.117c-0.045-0.193-0.409-0.625-0.738-0.751  c-0.467-0.215-0.89-0.241-1.284-0.095c-0.04,0.014-0.08,0.026-0.121,0.035c-0.181,0.041-0.57,0.373-0.768,0.799  c-0.204,0.368-0.217,0.821-0.071,1.224l1.206,3.312c0.231,0.664-0.123,1.41-0.768,1.642c-0.345,0.129-0.721,0.117-1.05-0.035  c-0.31-0.144-0.542-0.395-0.655-0.707l-1.712-4.701c-0.163-0.451-0.444-0.764-0.859-0.956c-0.238-0.086-0.702-0.187-1.2-0.005  c-0.038,0.014-0.076,0.025-0.115,0.034c-0.176,0.041-0.595,0.38-0.828,0.799c-0.166,0.362-0.172,0.761-0.152,0.851  c0.065,0.169,0.258,0.703,0.452,1.237l1.013,2.782c0.127,0.35,0.113,0.72-0.039,1.041c-0.151,0.321-0.427,0.567-0.776,0.691  c-0.288,0.109-0.628,0.098-0.937-0.043c-0.333-0.15-0.588-0.428-0.721-0.781L54.68,39.558c-0.146-0.4-0.434-0.708-0.831-0.891  c-0.419-0.196-0.83-0.22-1.227-0.075c-0.039,0.014-0.078,0.026-0.117,0.035c-0.178,0.042-0.576,0.382-0.771,0.803  c-0.133,0.286-0.253,0.727-0.071,1.224l8.028,22.056c0.126,0.345,0.114,0.712-0.035,1.035c-0.15,0.323-0.423,0.569-0.77,0.696  c-0.312,0.121-0.609,0.063-0.796,0l-6.015-1.446c-0.98-0.255-2.498,0.09-3.144,0.707c-0.041,0.039-0.085,0.073-0.131,0.104  c-0.055,0.051-0.256,0.336-0.335,0.575c-0.013,0.039-0.028,0.077-0.045,0.113c-0.045,0.103-0.103,0.438-0.064,0.646  c0.141,0.5,0.655,0.979,1.511,1.34l14.719,5.725c0.617,0.287,1.749,0.611,2.611,0.684c0.736,0.084,1,0.114,3.425,6.407  c0.199,0.517-0.058,1.095-0.573,1.293C69.926,80.639,69.806,80.66,69.686,80.66z"/><path d="M51.104,31.204h-16.61c-1.86,0-3.373,1.513-3.373,3.373v13.051c0,1.86,1.513,3.373,3.373,3.373h16.017c0.552,0,1-0.448,1-1  c0-0.486-0.353-0.872-0.813-0.962c-0.61-1.982-1.963-3.672-3.759-4.712c0.687-0.898,1.072-2.007,1.072-3.163  c0-2.875-2.338-5.214-5.213-5.214s-5.213,2.339-5.213,5.214c0,1.156,0.386,2.265,1.072,3.163c-1.784,1.034-3.133,2.708-3.749,4.674  h-0.416c-0.757,0-1.373-0.616-1.373-1.373V34.576c0-0.757,0.616-1.373,1.373-1.373h16.61c1.024,0,1.076,1.144,1.076,1.373  c0,0.552,0.448,1,1,1c0.552,0,1-0.448,1-1C54.181,32.622,52.886,31.204,51.104,31.204z M40.729,45.566  c0.354-0.124,0.609-0.437,0.66-0.809c0.051-0.372-0.111-0.742-0.419-0.956c-0.866-0.603-1.382-1.588-1.382-2.638  c0-1.772,1.441-3.214,3.213-3.214c1.772,0,3.213,1.442,3.213,3.214c0,1.05-0.517,2.036-1.382,2.638  c-0.308,0.214-0.47,0.584-0.419,0.956s0.306,0.685,0.66,0.809c1.669,0.585,2.993,1.854,3.677,3.434H37.053  C37.734,47.419,39.059,46.151,40.729,45.566z"/><path d="M54.07,86H31.528c-3.822,0-6.932-3.109-6.932-6.932V20.932c0-3.822,3.11-6.932,6.932-6.932H54.07  c3.822,0,6.932,3.11,6.932,6.932V40.86h-2V20.932c0-2.72-2.212-4.932-4.932-4.932H31.528c-2.72,0-4.932,2.212-4.932,4.932v58.136  c0,2.72,2.212,4.932,4.932,4.932H54.07c2.72,0,4.932-2.212,4.932-4.932V75.32h2v3.748C61.002,82.891,57.894,86,54.07,86z"/><path d="M46.953,20.152h-8.305c-0.552,0-1-0.448-1-1c0-0.552,0.448-1,1-1h8.305c0.552,0,1,0.448,1,1  C47.953,19.704,47.504,20.152,46.953,20.152z"/></svg>